<svg width="100" height="100" viewBox="0 0 100 100" fill="none" xmlns="http://www.w3.org/2000/svg">
<path d="M68.3912 22.9648C71.878 25.2966 75.3024 29.7438 77.1564 33.4822C80.3841 39.9092 80.8862 47.3655 78.549 54.1671C75.8664 61.9404 70.8019 66.9413 63.5318 70.4806C68.5337 75.7347 73.9815 80.6403 78.9045 85.9677C79.9494 87.0987 79.149 88.9082 77.4654 88.9512C75.4484 89.0028 73.4597 88.989 71.4428 88.9877L59.3229 88.9809C57.0704 88.9963 54.4181 89.0756 52.2289 88.7261C47.1293 87.9146 42.5623 85.1067 39.5366 80.922C31.9805 70.479 37.8165 55.7653 50.3726 53.2977C52.0704 52.9639 53.6907 52.843 55.4187 52.7632C63.6676 52.3823 71.2513 45.8852 72.5464 37.6694C73.4537 31.8045 71.7782 27.643 68.3912 22.9648Z" fill="#7E21D5"/>
<path d="M17.0017 16.1197C23.3838 16.021 29.804 16.1749 36.1899 16.1265C38.6358 16.1078 41.2527 16.0943 43.6486 16.5696C48.5648 17.5158 52.8911 20.4062 55.647 24.5858C58.315 28.6072 59.2642 33.5285 58.2826 38.2535C56.8315 45.129 51.1855 50.3749 44.3774 51.8541C42.8614 52.1963 41.2736 52.2079 39.7279 52.3237C30.8201 52.9902 23.5907 58.7775 21.8376 67.5763C21.7721 68.0177 21.7204 68.4614 21.6823 68.9061C21.2522 74.4967 22.8109 78.0392 26.3172 82.1959C22.7284 79.3439 20.2213 76.658 18.0772 72.5479C14.6883 65.9989 14.0199 58.3768 16.2172 51.3377C18.9348 42.9043 23.9743 38.4923 31.5296 34.6149C29.4434 32.5644 16.3852 20.1784 15.7801 18.7537C15.5626 18.2416 15.5145 17.6649 15.7622 17.1566C16.036 16.5953 16.4377 16.3383 17.0017 16.1197Z" fill="#7E21D5"/>
</svg>
