<svg width="108" height="108" viewBox="0 0 108 108" fill="none" xmlns="http://www.w3.org/2000/svg">
<path d="M17.0902 14.582C20.3448 14.5257 23.6202 14.5976 26.8754 14.6006L45.9244 14.5916L57.3101 14.5862C61.3316 14.5944 64.5292 14.4943 68.5141 15.2122C73.1851 16.0098 77.6224 17.8285 81.5094 20.5387C92.9545 28.5304 97.1217 42.6405 88.8122 54.527C84.249 60.926 77.3831 65.3071 69.6572 66.7496C70.3425 67.6829 71.4868 68.9012 72.2827 69.8031L76.9465 75.0888L86.7714 86.2332C89.0433 88.7791 91.2921 91.3454 93.5174 93.9322C90.9885 93.9509 88.4595 93.9496 85.9306 93.9281L78.2581 93.9424C76.7304 93.9464 74.6248 93.9936 73.1282 93.8263C70.6603 93.5656 68.3003 92.6761 66.2741 91.2431C63.8973 89.5413 61.9083 87.0681 60.011 84.8522L54.9668 78.9605L49.9146 73.0622C49.0925 72.1075 48.2525 71.2099 47.453 70.2261C46.2041 68.6891 45.597 67.1513 45.8331 65.1456C46.1558 62.4051 48.3091 60.4603 50.8849 59.7501C52.1266 59.4077 53.2728 59.4122 54.5266 59.2545C55.6607 59.1118 56.8778 58.8465 57.9777 58.5437C60.8951 57.7521 63.6181 56.3678 65.9769 54.4774C72.6666 49.1248 76.6104 39.6603 70.5802 32.1736C69.4357 30.76 68.0527 29.5575 66.4936 28.6208C61.6887 25.7037 57.166 26.2074 51.8093 26.1979L42.7738 26.1834C40.0531 26.192 37.5327 26.2839 34.8052 25.9877C26.6196 25.1584 19.1172 21.0537 14.0049 14.6072C15.0333 14.6047 16.0617 14.5963 17.0902 14.582Z" fill="#7E21D5"/>
<path d="M44.0111 35.6715C46.2282 35.6138 48.5649 35.6926 50.7978 35.6944L63.4417 35.6585C63.4508 36.7194 63.4805 37.9208 63.2854 38.9472C62.1147 45.1067 56.9987 49.9291 50.8203 50.875C49.6465 51.0546 48.4728 51.168 47.3073 51.3463C45.0368 51.6953 42.8794 52.571 41.0081 53.9035C37.8803 56.1003 35.7581 59.4542 35.1117 63.2213C34.6651 65.7895 35.0543 68.4332 36.2219 70.7638C37.0666 72.4319 38.7456 74.1959 39.9882 75.6161L45.9655 82.4846C47.027 83.7028 48.204 84.8934 49.1446 86.199C50.9581 88.7163 50.2549 91.4004 47.7928 93.083C45.5248 94.5295 42.5303 94.1718 39.9785 93.8194C33.6851 92.9866 27.8088 90.2091 23.1705 85.8746C11.3698 74.8363 10.9596 57.2454 22.0084 45.512C27.715 39.3982 35.6497 35.8495 44.0111 35.6715Z" fill="#7E21D5"/>
</svg>
